<svg xmlns="http://www.w3.org/2000/svg">

    <path id="alarm-icon" class="service-icon" d="M30.74 9.5a15.727 15.727 0 0 0-8.243-8.24A5.868 5.868 0 0 1 30.74 9.5zM30.5 16a14.442 14.442 0 0 1-3.963 9.94l2.029 2.03a1.482 1.482 0 0 1-1.049 2.53 1.51 1.51 0 0 1-1.049-.43l-2.178-2.18a14.471 14.471 0 0 1-16.566.01l-2.163 2.16a1.5 1.5 0 1 1-2.122-2.12l2.012-2.01A14.495 14.495 0 1 1 30.5 16zM16 4.5A11.5 11.5 0 1 0 27.5 16 11.5 11.5 0 0 0 16 4.5zm6 13h-6a1.5 1.5 0 0 1-1.5-1.5V8a1.5 1.5 0 0 1 3 0v6.5H22a1.5 1.5 0 0 1 0 3zM1.287 9.71A6 6 0 0 1 6 0a5.935 5.935 0 0 1 3.706 1.29 16.016 16.016 0 0 0-8.419 8.42z">
    <path id="line-graph-icon" class="service-icon-svg" d="M30.5 32h-29A1.5 1.5 0 0 1 0 30.5v-29A1.5 1.5 0 0 1 1.5 0h29A1.5 1.5 0 0 1 32 1.5v29a1.5 1.5 0 0 1-1.5 1.5zM29 3H3v26h26V3zM5.215 16.24l4-2.5a1.524 1.524 0 0 1 1.625.03h.006l6.631 4.42 7.638-5.4a1.501 1.501 0 1 1 1.763 2.43l-8.5 6a1.486 1.486 0 0 1-.878.29 1.505 1.505 0 0 1-.861-.28L9.982 16.8l-3.135 1.95a1.465 1.465 0 0 1-.847.27 1.5 1.5 0 0 1-.785-2.78z">
    <path id="computer-icon" class="service-icon-svg" d="M29.5 23H20v2.5l2 2v.5H9v-.5l2-2V23H1.5A1.5 1.5 0 0 1 0 21.5v-20A1.5 1.5 0 0 1 1.5 0h28A1.5 1.5 0 0 1 31 1.5v20a1.5 1.5 0 0 1-1.5 1.5zM29 2H2v17h27V2zM12.5 9a1.505 1.505 0 0 1 1.06.44l.94.94 2.94-2.94a1.5 1.5 0 1 1 2.12 2.12l-4 4a1.5 1.5 0 0 1-2.12 0l-2-2A1.5 1.5 0 0 1 12.5 9z">
    <path id="book-icon" class="service-icon-svg" d="M31.065 25.89l-14.471 5.99a1.53 1.53 0 0 1-1.188 0L.935 25.89A1.5 1.5 0 0 1 0 24.5v-23A1.5 1.5 0 0 1 1.5 0a1.55 1.55 0 0 1 .573.11.012.012 0 0 0 .013.01L16 5.88 29.911.12a.012.012 0 0 0 .013-.01 1.55 1.55 0 0 1 .573-.11 1.5 1.5 0 0 1 1.5 1.5v23a1.5 1.5 0 0 1-.932 1.39zM14.5 8.5L3 3.74V23.5l11.5 4.76V8.5zM29 3.74L17.5 8.5v19.76L29 23.5V3.74zm-9.121 6.89l5.5-2.5A1.593 1.593 0 0 1 26 8a1.5 1.5 0 0 1 .621 2.87l-5.5 2.5a1.6 1.6 0 0 1-.621.13 1.5 1.5 0 0 1-.621-2.87zm0 5.5l5.5-2.5A1.593 1.593 0 0 1 26 13.5a1.5 1.5 0 0 1 .621 2.87l-5.5 2.5v-.01a1.445 1.445 0 0 1-.621.14 1.5 1.5 0 0 1-.621-2.87zm0 5.5l5.5-2.5A1.593 1.593 0 0 1 26 19a1.5 1.5 0 0 1 .621 2.87l-5.5 2.5a1.6 1.6 0 0 1-.621.13 1.5 1.5 0 0 1-.621-2.87zM6 8a1.6 1.6 0 0 1 .621.13l5.5 2.5a1.5 1.5 0 0 1-.621 2.87 1.593 1.593 0 0 1-.621-.13l-5.5-2.5A1.5 1.5 0 0 1 6 8zm0 5.5a1.6 1.6 0 0 1 .621.13l5.5 2.5A1.5 1.5 0 0 1 11.5 19a1.439 1.439 0 0 1-.621-.14v.01l-5.5-2.5A1.5 1.5 0 0 1 6 13.5zM6 19a1.6 1.6 0 0 1 .621.13l5.5 2.5a1.5 1.5 0 0 1-.621 2.87 1.593 1.593 0 0 1-.621-.13l-5.5-2.5A1.5 1.5 0 0 1 6 19z">
    <path id="home-icon" class="service-icon-svg" d="M32 16a1.493 1.493 0 0 1-2.52 1.09v.01L16.041 3.66l-.038-.04L2.557 17.07a1.525 1.525 0 0 1-1.053.43 1.5 1.5 0 0 1-1.5-1.5 1.479 1.479 0 0 1 .461-1.08L14.923.46A1.51 1.51 0 0 1 16.004 0h.092c.023 0 .045.01.068.01a1.479 1.479 0 0 1 .933.47l5.9 5.9V5a1.5 1.5 0 0 1 3 0v4.38l5.6 5.6A1.485 1.485 0 0 1 32 16zm-3 2.5V29a1.5 1.5 0 0 1-1.5 1.5h-3v-12h-6v12h-14A1.5 1.5 0 0 1 3 29V18.5l13-13zm-15.5 0h-6v6h6v-6z">
    <path id="image-icon" class="service-icon-svg" d="M30.5 32h-29A1.5 1.5 0 0 1 0 30.5v-29A1.5 1.5 0 0 1 1.5 0h29A1.5 1.5 0 0 1 32 1.5v29a1.5 1.5 0 0 1-1.5 1.5zM29 3H3v26h26V3zM6.5 4.5H12a1.5 1.5 0 0 1 0 3H7.5V12a1.5 1.5 0 0 1-3 0V4.5h2zM4.5 20a1.5 1.5 0 0 1 3 0v4.5H12a1.5 1.5 0 0 1 0 3H4.5V20zM20 4.5h7.5V12a1.5 1.5 0 0 1-3 0V7.5H20a1.5 1.5 0 0 1 0-3zm0 20h4.5V20a1.5 1.5 0 0 1 3 0v7.5H20a1.5 1.5 0 0 1 0-3z">

</svg>